<?xml version="1.0" encoding="iso-8859-1"?>
<!-- Generator: Adobe Illustrator 19.0.0, SVG Export Plug-In . SVG Version: 6.00 Build 0)  -->
<svg version="1.1" id="Capa_1" xmlns="http://www.w3.org/2000/svg" xmlns:xlink="http://www.w3.org/1999/xlink" x="0px" y="0px"
	 viewBox="0 0 364.669 364.669" style="enable-background:new 0 0 364.669 364.669;" xml:space="preserve">
<linearGradient id="SVGID_1_" gradientUnits="userSpaceOnUse" x1="-64.275" y1="534.6292" x2="-64.275" y2="464.8292" gradientTransform="matrix(5.2245 0 0 -5.2245 518.1388 2793.1648)">
	<stop  offset="0" style="stop-color:#00EFD1"/>
	<stop  offset="1" style="stop-color:#00ACEA"/>
</linearGradient>
<path style="fill:url(#SVGID_1_);" d="M319.753,5.224C316.618,1.567,312.439,0,307.737,0H56.961c-4.702,0-8.882,2.09-12.016,5.224
	c-3.135,3.657-4.18,7.837-3.657,12.539l44.931,333.322c1.045,7.837,7.837,13.584,15.673,13.584h160.914
	c7.837,0,14.629-5.747,15.673-13.584L323.41,17.763C323.932,13.061,322.365,8.882,319.753,5.224z M289.973,31.347l-15.151,113.371
	c-4.702-1.045-8.359-3.135-12.539-5.225c-9.404-4.702-21.42-9.927-42.841-9.927s-33.437,5.747-42.841,9.927
	c-8.359,4.18-14.629,7.314-29.257,7.314s-20.898-3.135-29.257-7.314c-7.314-3.657-15.673-7.314-29.257-9.404L75.247,30.825h214.727
	V31.347z M249.222,333.322H115.475L92.488,163.527c4.18,1.045,7.314,3.135,11.494,4.702c9.404,4.702,21.42,9.927,42.841,9.927
	c21.42,0,33.437-5.747,42.841-9.927c8.359-4.18,14.629-7.314,29.257-7.314s20.898,3.135,29.257,7.314
	c5.747,2.612,12.539,6.269,21.943,7.837L249.222,333.322z"/>
<g>
</g>
<g>
</g>
<g>
</g>
<g>
</g>
<g>
</g>
<g>
</g>
<g>
</g>
<g>
</g>
<g>
</g>
<g>
</g>
<g>
</g>
<g>
</g>
<g>
</g>
<g>
</g>
<g>
</g>
</svg>
