<?xml version="1.0" encoding="iso-8859-1"?>
<!-- Generator: Adobe Illustrator 19.0.0, SVG Export Plug-In . SVG Version: 6.00 Build 0)  -->
<svg version="1.1" id="Capa_1" xmlns="http://www.w3.org/2000/svg" xmlns:xlink="http://www.w3.org/1999/xlink" x="0px" y="0px"
	 viewBox="0 0 408.005 408.005" style="enable-background:new 0 0 408.005 408.005;" xml:space="preserve">
<path style="fill:#FBB03B;" d="M85.089,204.861c-46.865-46.865-46.865-122.847,0-169.712s122.847-46.865,169.712,0L85.089,204.861z"
	/>
<g>
	
		<rect x="118.833" y="49.886" transform="matrix(-0.7071 0.7071 -0.7071 -0.7071 270.9067 41.6233)" style="fill:#F7931E;" width="16" height="54.064"/>
	<path style="fill:#F7931E;" d="M81.945,120.005c0.002-48.601,39.402-87.999,88.003-87.997c23.337,0.001,45.719,9.272,62.221,25.773
		l22.632-22.632c-46.865-46.865-122.847-46.865-169.712,0s-46.865,122.847,0,169.712l22.632-22.632
		C91.189,165.745,81.912,143.35,81.945,120.005z"/>
	<rect x="161.945" y="32.005" style="fill:#F7931E;" width="16" height="64"/>
	<rect x="81.945" y="112.005" style="fill:#F7931E;" width="64" height="16"/>
</g>
<polygon style="fill:#E6E6E6;" points="329.945,376.005 153.945,376.005 137.945,88.005 345.945,88.005 "/>
<rect x="153.945" y="376.005" style="fill:#999999;" width="176" height="32"/>
<path style="fill:#666666;" d="M303.233,200.885l-15.904-1.76l18.664-168c0.275-2.481,1.692-4.691,3.832-5.976l40-24l8.24,13.712
	l-36.608,21.944L303.233,200.885z"/>
<path style="fill:#FBB03B;" d="M329.945,376.005h-176l-10.944-197.056l18.944-18.944c22.093-22.087,57.907-22.087,80,0
	s57.907,22.087,80,0l21.176-21.176L329.945,376.005z"/>
<g>
	<rect x="185.945" y="192.005" style="fill:#F7931E;" width="16" height="16"/>
	<rect x="233.945" y="256.005" style="fill:#F7931E;" width="16" height="16"/>
	<rect x="281.945" y="320.005" style="fill:#F7931E;" width="16" height="16"/>
	<rect x="289.945" y="216.005" style="fill:#F7931E;" width="16" height="16"/>
	<rect x="193.945" y="312.005" style="fill:#F7931E;" width="16" height="16"/>
</g>
<g>
</g>
<g>
</g>
<g>
</g>
<g>
</g>
<g>
</g>
<g>
</g>
<g>
</g>
<g>
</g>
<g>
</g>
<g>
</g>
<g>
</g>
<g>
</g>
<g>
</g>
<g>
</g>
<g>
</g>
</svg>
