<?xml version="1.0" encoding="iso-8859-1"?>
<!-- Generator: Adobe Illustrator 19.0.0, SVG Export Plug-In . SVG Version: 6.00 Build 0)  -->
<svg version="1.1" id="Capa_1" xmlns="http://www.w3.org/2000/svg" xmlns:xlink="http://www.w3.org/1999/xlink" x="0px" y="0px"
	 viewBox="0 0 480 480" style="enable-background:new 0 0 480 480;" xml:space="preserve">
<g>
	<g>
		<path d="M463.988,422.288c-1.702-30.702-27.268-54.626-58.016-54.288h-85.984v-72h95.68c26.686,0.001,48.321-21.632,48.322-48.318
			c0-12.089-4.53-23.738-12.698-32.65l-55.784-60.848c-15.309-16.663-36.893-26.158-59.52-26.184h-60.32
			c7.927-8.773,12.317-20.176,12.32-32V48c0-26.51-21.49-48-48-48s-48,21.49-48,48v48c0.003,11.824,4.393,23.227,12.32,32h-60.32
			c-22.628,0.026-44.211,9.521-59.52,26.184l-55.784,60.848c-18.031,19.674-16.699,50.239,2.974,68.27
			C40.57,291.47,52.219,296,64.308,296h95.68v48H117.7c-11.65-0.341-21.371,8.828-21.712,20.478
			c-0.034,1.177,0.03,2.355,0.192,3.522H71.988c-30.913,0.035-55.965,25.087-56,56c0.035,30.913,25.087,55.965,56,56h336
			c30.928,0.014,56.012-25.046,56.026-55.974C464.014,423.447,464.006,422.867,463.988,422.288z M343.988,144.496L343.988,144.496
			c15.252,1.918,29.329,9.183,39.728,20.504l55.776,60.84c12.062,13.158,11.173,33.602-1.984,45.664
			c-5.961,5.464-13.753,8.496-21.84,8.496h-167.68v-86.84h0.096c1.746,0.538,3.437,1.242,5.048,2.104
			c0.392,0.208,0.8,0.432,1.168,0.656c1.522,0.874,2.96,1.887,4.296,3.024l0.2,0.152c1.363,1.234,2.604,2.598,3.704,4.072
			c0.272,0.36,0.536,0.72,0.8,1.096c1.094,1.543,2.032,3.191,2.8,4.92l14.544,33.944c1.252,2.948,4.142,4.864,7.344,4.872h96
			c4.418-0.001,7.999-3.583,7.998-8.002c0-2.121-0.843-4.154-2.342-5.654l-45.656-45.656V144.496z M303.988,296v72h-74.232
			l-2.536-7.592c-3.267-9.796-12.433-16.405-22.76-16.408h-28.472v-48H303.988z M340.292,207.648L364.676,232h-30.4L340.292,207.648
			z M207.988,48c0-17.673,14.327-32,32-32c17.673,0,32,14.327,32,32v48c0,17.673-14.327,32-32,32c-17.673,0-32-14.327-32-32V48z
			 M151.988,144h176v47.016L317.74,232h-24.48l-12.472-29.096c-9.672-22.533-35.78-32.959-58.313-23.287
			c-10.46,4.49-18.797,12.826-23.287,23.287L186.716,232h-24.48l-10.248-40.984V144z M145.74,232h-30.4l24.312-24.352L145.74,232z
			 M64.308,280c-17.843-0.018-32.302-14.477-32.32-32.32c-0.006-8.088,3.026-15.883,8.496-21.84l55.776-60.8
			c10.393-11.336,24.471-18.616,39.728-20.544v44.192l-45.656,45.656c-3.124,3.125-3.123,8.19,0.002,11.314
			c1.5,1.499,3.534,2.342,5.654,2.342h96c3.2,0,6.091-1.907,7.352-4.848l14.544-33.944c0.768-1.724,1.704-3.37,2.792-4.912
			c0.264-0.376,0.528-0.752,0.8-1.112c1.095-1.468,2.33-2.827,3.688-4.056c0.072-0.064,0.16-0.112,0.232-0.176
			c1.328-1.132,2.758-2.139,4.272-3.008c0.384-0.224,0.8-0.448,1.176-0.656c1.608-0.863,3.296-1.568,5.04-2.104h0.096V280H64.308z
			 M391.4,460.132c-1.072,2.357-3.423,3.869-6.012,3.868h-313.4c-22.08-0.026-39.974-17.92-40-40c0.026-22.08,17.92-39.974,40-40
			h30.856l190.904,55.68c3.355,0.979,6.957-0.333,8.896-3.24l8.456-12.68c2.174-3.261,6.391-4.467,9.96-2.848l67.064,30.48
			C391.442,452.901,392.909,456.814,391.4,460.132z M409.239,463.981c-0.417,0.013-0.834,0.019-1.251,0.019h-0.984
			c0.136-0.44,0.2-0.912,0.312-1.36s0.184-0.76,0.256-1.152c0.265-1.347,0.404-2.715,0.416-4.088
			c0.003-8.867-5.172-16.92-13.24-20.6l-67.064-30.488c-10.707-4.909-23.395-1.287-29.896,8.536l-5.2,7.792l-176.48-51.44
			c-3.031-0.875-4.779-4.041-3.904-7.072c0.707-2.451,2.954-4.135,5.504-4.128h86.752c3.445-0.001,6.503,2.204,7.592,5.472
			l4.352,13.056c1.088,3.266,4.142,5.469,7.584,5.472h181.984c22.12-0.394,40.633,16.688,42.016,38.768
			C448.668,444.849,431.32,463.301,409.239,463.981z"/>
	</g>
</g>
<g>
</g>
<g>
</g>
<g>
</g>
<g>
</g>
<g>
</g>
<g>
</g>
<g>
</g>
<g>
</g>
<g>
</g>
<g>
</g>
<g>
</g>
<g>
</g>
<g>
</g>
<g>
</g>
<g>
</g>
</svg>
